<?xml version="1.0" standalone="no"?>
<svg width="20" height="27" viewBox="0 0 20 27" fill="none" xmlns="http://www.w3.org/2000/svg">
<g clip-path="url(#clip0_7:8)">
<path d="M9.94963 27C7.97064 27.018 6.02904 26.4646 4.36111 25.407C2.69319 24.3495 1.37087 22.8334 0.555084 21.0432L0.525308 20.9743C-1.58387 15.2442 3.09603 8.86861 6.51538 4.18302C7.40955 3.02906 8.22843 1.81947 8.967 0.561672C9.0551 0.3927 9.18822 0.250973 9.35186 0.151933C9.5155 0.0528928 9.70338 0.000337477 9.89503 -7.11995e-06C10.0888 -0.000771821 10.2789 0.0523645 10.4438 0.15338C10.6087 0.254395 10.7418 0.399249 10.828 0.571526C11.656 1.99739 12.5692 3.37283 13.5625 4.6905C16.8727 9.33175 21.0067 15.1111 19.7859 19.4173C18.565 23.7235 15.1357 26.6305 10.8032 26.9655C10.5154 26.9901 10.2325 27 9.94963 27ZM2.37642 20.2598C3.09185 21.803 4.27164 23.0879 5.75327 23.9377C7.2349 24.7874 8.94548 25.1602 10.6494 25.0046C14.1779 24.7286 16.8727 22.4474 17.8653 18.8901C18.8181 15.4856 14.8429 9.90328 11.9347 5.82864C11.1605 4.73977 10.4459 3.74452 9.88015 2.87244C9.38387 3.62134 8.77841 4.44908 8.11836 5.33594C4.96203 9.63722 0.664265 15.525 2.37642 20.2598Z" fill="#0E0E0E"/>
<path d="M9.42927 23.0978C6.64018 23.0978 4.37219 20.6688 4.37219 17.6781C4.37219 17.4168 4.47676 17.1661 4.66291 16.9813C4.84905 16.7965 5.10151 16.6927 5.36475 16.6927C5.62799 16.6927 5.88045 16.7965 6.06659 16.9813C6.25273 17.1661 6.3573 17.4168 6.3573 17.6781C6.3573 19.5799 7.73199 21.127 9.42927 21.127C9.67065 21.1281 9.91106 21.0966 10.1439 21.0334C10.2734 20.989 10.4107 20.9716 10.5472 20.9825C10.6837 20.9933 10.8165 21.0321 10.9373 21.0963C11.058 21.1606 11.164 21.249 11.2486 21.3559C11.3332 21.4628 11.3946 21.586 11.429 21.7176C11.4633 21.8492 11.4699 21.9865 11.4482 22.1208C11.4265 22.255 11.377 22.3834 11.303 22.4978C11.2289 22.6121 11.1317 22.7101 11.0177 22.7853C10.9036 22.8606 10.7751 22.9117 10.6402 22.9352C10.2455 23.042 9.83835 23.0967 9.42927 23.0978Z" fill="#0E0E0E"/>
</g>
<defs>
<clipPath id="clip0_7:8">
<rect width="20" height="27" fill="white"/>
</clipPath>
</defs>
</svg>
